<?xml version="1.0" encoding="iso-8859-1"?>
<!-- Uploaded to: SVG Repo, www.svgrepo.com, Generator: SVG Repo Mixer Tools -->
<svg version="1.1" id="Layer_1" xmlns="http://www.w3.org/2000/svg" xmlns:xlink="http://www.w3.org/1999/xlink" 
	 viewBox="0 0 511.973 511.973" xml:space="preserve">
<path style="fill:#ED5564;" d="M483.773,137.648c-3.594-14.921-10.344-26.514-20.108-34.451
	c-15.905-12.968-36.092-19.546-59.981-19.546c-29.811,0-65.824,10.374-107.072,30.842c-30.287,15.031-52.677,30.265-55.13,31.952
	c-8.671,5.968-13.858,15.827-13.858,26.357V370.12c0,8.483,3.281,16.467,9.25,22.498c0.625,0.641,15.702,15.844,35.756,31.201
	c30.639,23.469,56.418,34.874,78.776,34.874c2.906,0,5.797-0.188,8.577-0.562c13.031-1.797,25.609-9.358,37.404-22.468
	c9.688-10.781,19.281-25.607,29.312-45.311c15.343-30.107,30.546-70.262,41.732-110.15c10.124-36.123,16.374-69.527,18.093-96.588
	C487.679,165.21,486.789,150.178,483.773,137.648z M422.652,179.568c-1.406,22.343-7.031,51.935-15.844,83.354
	c-10.094,36.014-23.623,71.872-37.139,98.401c-10.312,20.249-17.671,29.311-21.17,32.936c-6-1.5-18.359-7.031-36.795-21.123
	c-7.828-5.984-14.844-12.031-20.094-16.797V190.364c10.219-6.202,25.546-14.968,42.686-22.936
	c27.842-12.938,51.826-19.78,69.387-19.78c5.297,0,12.344,0.703,17.531,3.749C422.09,154.35,423.729,162.428,422.652,179.568z"/>
<rect x="227.626" y="190.366" style="fill:#CCD1D9;" width="63.988" height="165.98"/>
<path style="fill:#E6E9ED;" d="M291.611,213.332h-63.988c-5.891,0-10.671,4.766-10.671,10.656v85.339
	c0,5.89,4.781,10.655,10.671,10.655h63.988c5.891,0,10.672-4.766,10.672-10.655v-85.339
	C302.283,218.097,297.502,213.332,291.611,213.332z"/>
<g>
	<path style="fill:#CCD1D9;" d="M245.84,252.861c-4.172,4.172-10.921,4.172-15.093,0c-4.171-4.156-4.171-10.921,0-15.077
		c4.172-4.172,10.921-4.172,15.093,0C249.996,241.94,249.996,248.705,245.84,252.861z"/>
	<path style="fill:#CCD1D9;" d="M267.168,274.204c-4.172,4.155-10.922,4.155-15.093,0c-4.156-4.172-4.156-10.922,0-15.093
		c4.171-4.156,10.921-4.156,15.093,0C271.324,263.282,271.324,270.032,267.168,274.204z"/>
	<path style="fill:#CCD1D9;" d="M288.486,295.531c-4.156,4.171-10.921,4.171-15.076,0c-4.164-4.172-4.164-10.922,0-15.094
		c4.155-4.156,10.92-4.156,15.076,0C292.658,284.609,292.658,291.359,288.486,295.531z"/>
	<path style="fill:#CCD1D9;" d="M288.486,252.861c-4.156,4.172-10.921,4.172-15.076,0c-4.164-4.156-4.164-10.921,0-15.077
		c4.155-4.172,10.92-4.172,15.076,0C292.658,241.94,292.658,248.705,288.486,252.861z"/>
	<path style="fill:#CCD1D9;" d="M245.84,295.531c-4.172,4.171-10.921,4.171-15.093,0c-4.171-4.172-4.171-10.922,0-15.094
		c4.172-4.156,10.921-4.156,15.093,0C249.996,284.609,249.996,291.359,245.84,295.531z"/>
</g>
<path style="fill:#FFCE54;" d="M99.629,10.671c-35.342,0-63.997,28.654-63.997,63.997v405.307c0,11.78,9.546,21.342,21.327,21.342
	c11.796,0,21.343-9.562,21.343-21.342V74.668c0-11.781,9.546-21.327,21.327-21.327s21.327,9.546,21.327,21.327v405.307
	c0,11.78,9.562,21.342,21.343,21.342c11.78,0,21.327-9.562,21.327-21.342V74.668C163.626,39.325,134.971,10.671,99.629,10.671z"/>
<g>
	<path style="fill:#F6BB42;" d="M99.629,0C58.46,0,24.961,33.498,24.961,74.668v405.307c0,17.654,14.359,31.998,31.999,31.998
		c17.655,0,31.998-14.344,31.998-31.998V74.668c0-5.891,4.797-10.672,10.671-10.672c5.891,0,10.671,4.781,10.671,10.672v405.307
		c0,17.654,14.359,31.998,31.999,31.998s31.998-14.344,31.998-31.998V74.668C174.297,33.498,140.799,0,99.629,0z M152.955,479.974
		c0,5.891-4.781,10.671-10.656,10.671c-5.891,0-10.671-4.78-10.671-10.671V74.668c0-17.641-14.359-31.999-31.999-31.999
		S67.631,57.027,67.631,74.668v405.307c0,5.891-4.781,10.671-10.671,10.671c-5.875,0-10.656-4.78-10.656-10.671V74.668
		c0-29.405,23.92-53.326,53.325-53.326s53.326,23.921,53.326,53.326L152.955,479.974L152.955,479.974z"/>
	<polygon style="fill:#F6BB42;" points="128.503,295.531 113.425,280.453 156.079,237.784 171.173,252.861 	"/>
	<polygon style="fill:#F6BB42;" points="128.503,210.207 113.425,195.114 156.079,152.46 171.173,167.538 	"/>
	<polygon style="fill:#F6BB42;" points="128.503,124.868 113.425,109.791 156.079,67.121 171.173,82.214 	"/>
	<polygon style="fill:#F6BB42;" points="128.503,380.854 113.425,365.777 156.079,323.107 171.173,338.2 	"/>
	<polygon style="fill:#F6BB42;" points="128.503,466.193 113.425,451.1 156.079,408.447 171.173,423.523 	"/>
	<polygon style="fill:#F6BB42;" points="70.756,295.531 28.086,252.861 43.179,237.784 85.849,280.453 	"/>
	<polygon style="fill:#F6BB42;" points="70.756,210.207 28.086,167.538 43.179,152.46 85.849,195.114 	"/>
	<polygon style="fill:#F6BB42;" points="70.756,124.868 28.086,82.214 43.179,67.121 85.849,109.791 	"/>
	<polygon style="fill:#F6BB42;" points="70.756,380.854 28.086,338.2 43.179,323.107 85.849,365.777 	"/>
	<polygon style="fill:#F6BB42;" points="70.756,466.193 28.086,423.523 43.179,408.447 85.849,451.1 	"/>
</g>
</svg>